<svg width="33" height="30" viewBox="0 0 33 30" fill="none" xmlns="http://www.w3.org/2000/svg">
<path d="M32.5635 9.61957C32.5635 14.2237 29.9003 18.9483 24.6491 23.6728C22.2646 25.8164 19.6683 27.712 16.9003 29.3302C16.7205 29.429 16.5186 29.4808 16.3135 29.4808C16.1083 29.4808 15.9065 29.429 15.7267 29.3302C15.0797 28.9691 0.0634766 20.4379 0.0634766 9.61957C0.0634766 7.7248 0.659647 5.87806 1.76754 4.34094C2.87543 2.80382 4.43888 1.65425 6.23642 1.05507C8.03396 0.455893 9.97446 0.437479 11.783 1.00244C13.5916 1.5674 15.1766 2.68709 16.3135 4.20291C17.4503 2.68709 19.0353 1.5674 20.8439 1.00244C22.6525 0.437479 24.593 0.455893 26.3905 1.05507C28.1881 1.65425 29.7515 2.80382 30.8594 4.34094C31.9673 5.87806 32.5635 7.7248 32.5635 9.61957Z" fill="#EF0606"/>
</svg>
